<svg xmlns="http://www.w3.org/2000/svg" width="1200" height="630" viewBox="0 0 1200 630">
  <rect width="1200" height="630" fill="#0a0a0a"/>
  <rect x="0" y="0" width="1200" height="4" fill="#00ff88"/>
  <!-- Grid pattern -->
  <g opacity="0.05" stroke="#00ff88" stroke-width="1">
    <line x1="0" y1="100" x2="1200" y2="100"/>
    <line x1="0" y1="200" x2="1200" y2="200"/>
    <line x1="0" y1="300" x2="1200" y2="300"/>
    <line x1="0" y1="400" x2="1200" y2="400"/>
    <line x1="0" y1="500" x2="1200" y2="500"/>
    <line x1="200" y1="0" x2="200" y2="630"/>
    <line x1="400" y1="0" x2="400" y2="630"/>
    <line x1="600" y1="0" x2="600" y2="630"/>
    <line x1="800" y1="0" x2="800" y2="630"/>
    <line x1="1000" y1="0" x2="1000" y2="630"/>
  </g>
  <!-- Accent line chart decoration -->
  <polyline points="100,450 200,420 300,380 400,400 500,350 600,300 700,320 750,250 800,200 850,220 900,180 950,150 1000,170 1050,140 1100,120" fill="none" stroke="#00ff88" stroke-width="2" opacity="0.3"/>
  <polyline points="100,450 200,420 300,380 400,400 500,350 600,300 700,320 750,250 800,200 850,220 900,180 950,150 1000,170 1050,140 1100,120" fill="none" stroke="#00ff88" stroke-width="2" opacity="0.15" stroke-dasharray="4,4" transform="translate(0,20)"/>
  <!-- Brand -->
  <text x="600" y="220" text-anchor="middle" font-family="monospace" font-size="72" font-weight="700" fill="#00ff88">PRUVIQ</text>
  <!-- Tagline -->
  <text x="600" y="300" text-anchor="middle" font-family="sans-serif" font-size="32" fill="#e0e0e0">Don't Believe. Verify.</text>
  <!-- Stats bar -->
  <rect x="200" y="380" width="800" height="1" fill="#333"/>
  <text x="330" y="430" text-anchor="middle" font-family="monospace" font-size="28" font-weight="700" fill="#00ff88">500+</text>
  <text x="330" y="460" text-anchor="middle" font-family="sans-serif" font-size="14" fill="#888">Coins Simulated</text>
  <text x="600" y="430" text-anchor="middle" font-family="monospace" font-size="28" font-weight="700" fill="#00ff88">2+ yrs</text>
  <text x="600" y="460" text-anchor="middle" font-family="sans-serif" font-size="14" fill="#888">Historical Data</text>
  <text x="870" y="430" text-anchor="middle" font-family="monospace" font-size="28" font-weight="700" fill="#00ff88">Free</text>
  <text x="870" y="460" text-anchor="middle" font-family="sans-serif" font-size="14" fill="#888">Forever</text>
  <!-- URL -->
  <text x="600" y="560" text-anchor="middle" font-family="monospace" font-size="18" fill="#555">pruviq.com</text>
</svg>
