<svg xmlns="http://www.w3.org/2000/svg" viewBox="0 0 800 800" width="800" height="800">
  <defs>
    <pattern id="grid" x="0" y="0" width="40" height="40" patternUnits="userSpaceOnUse">
      <line x1="40" y1="0" x2="40" y2="40" stroke="#2CB5E8" stroke-width="0.3" opacity="0.04"/>
      <line x1="0" y1="40" x2="40" y2="40" stroke="#2CB5E8" stroke-width="0.3" opacity="0.04"/>
    </pattern>
  </defs>

  <!-- Background -->
  <rect width="800" height="800" fill="#0C1829"/>
  <rect width="800" height="800" fill="url(#grid)"/>

  <!-- P✓ Icon (same position/size as old IQ block: 260,200 280x220) -->
  <g transform="translate(272, 185) scale(8)">
    <rect width="32" height="32" rx="6" fill="#111E33"/>
    <path d="M9.73 23L6.45 23L6.45 6.99L12.69 6.99Q14.52 6.99 15.80 7.69Q17.07 8.38 17.75 9.60Q18.42 10.82 18.42 12.40L18.42 12.40Q18.42 13.99 17.73 15.20Q17.05 16.40 15.75 17.09Q14.45 17.77 12.62 17.77L12.62 17.77L9.73 17.77L9.73 23ZM9.73 9.70L9.73 15.13L12.09 15.13Q13.59 15.13 14.31 14.36Q15.03 13.60 15.03 12.40L15.03 12.40Q15.03 11.18 14.31 10.44Q13.59 9.70 12.08 9.70L12.08 9.70L9.73 9.70Z" fill="#2CB5E8" fill-rule="nonzero"/>
    <path d="M18 17 L20 19.5 L27 13" stroke="#2CB5E8" stroke-width="2.5" fill="none" stroke-linecap="round" stroke-linejoin="round"/>
  </g>

  <!-- Wordmark: PRUVIQ (single text, uniform spacing) -->
  <text x="400" y="510" text-anchor="middle" font-family="'JetBrains Mono','SF Mono','Menlo',monospace" font-size="52" font-weight="700" letter-spacing="5"><tspan fill="#e8eaf0">PRUV</tspan><tspan fill="#2CB5E8">IQ</tspan></text>

  <!-- Separator + Tagline -->
  <line x1="300" y1="535" x2="500" y2="535" stroke="#2CB5E8" stroke-width="0.8" stroke-opacity="0.18"/>
  <text x="400" y="570" font-family="'JetBrains Mono','SF Mono','Menlo',monospace" font-size="18" font-weight="400" fill="#8892b0" text-anchor="middle" letter-spacing="4">PROVE YOUR STRATEGY</text>

  <!-- Corner accents — same as old, color changed -->
  <polyline points="55,75 55,55 75,55" fill="none" stroke="#2CB5E8" stroke-width="1" stroke-opacity="0.12" stroke-linecap="round"/>
  <polyline points="725,55 745,55 745,75" fill="none" stroke="#2CB5E8" stroke-width="1" stroke-opacity="0.12" stroke-linecap="round"/>
  <polyline points="55,725 55,745 75,745" fill="none" stroke="#2CB5E8" stroke-width="1" stroke-opacity="0.12" stroke-linecap="round"/>
  <polyline points="725,745 745,745 745,725" fill="none" stroke="#2CB5E8" stroke-width="1" stroke-opacity="0.12" stroke-linecap="round"/>
</svg>
